<?xml version="1.0" standalone="no"?>
<!DOCTYPE svg PUBLIC "-//W3C//DTD SVG 20010904//EN"
 "http://www.w3.org/TR/2001/REC-SVG-20010904/DTD/svg10.dtd">
<svg version="1.0" xmlns="http://www.w3.org/2000/svg"
 width="277.000000pt" height="270.000000pt" viewBox="0 0 277.000000 270.000000"
 preserveAspectRatio="xMidYMid meet">

<g transform="translate(0.000000,270.000000) scale(0.100000,-0.100000)"
fill="#000000" stroke="none">
<path d="M1384 2586 c-204 -95 -162 -403 60 -445 98 -18 193 23 246 106 128
202 -88 441 -306 339z"/>
<path d="M1284 2037 c-92 -40 -359 -185 -386 -210 -14 -13 -34 -39 -43 -58
-29 -56 -145 -446 -145 -489 0 -77 85 -137 156 -110 52 20 72 49 104 154 109
354 97 324 141 346 21 11 39 17 39 13 0 -3 -14 -106 -31 -227 -33 -235 -33
-290 0 -355 22 -42 85 -103 263 -254 148 -126 130 -79 154 -422 12 -182 20
-248 33 -275 54 -109 211 -107 265 4 18 37 18 43 -6 360 -23 296 -27 326 -49
365 -14 25 -72 84 -147 148 -68 58 -128 117 -133 131 -7 19 2 112 36 347 49
352 52 387 31 436 -17 41 -71 94 -109 108 -45 17 -118 12 -173 -12z"/>
<path d="M590 1649 c-47 -5 -137 -18 -200 -28 -283 -48 -292 -56 -308 -247
-13 -153 -1 -184 90 -230 69 -35 284 -107 443 -147 120 -31 339 -77 364 -77 4
0 20 40 35 89 21 70 24 95 16 116 -5 14 -10 40 -10 57 l0 31 -31 -42 c-78
-109 -245 -106 -322 5 -48 69 -46 106 12 298 28 93 51 172 51 177 0 10 -21 10
-140 -2z"/>
<path d="M1626 1606 c-2 -12 -17 -111 -32 -220 l-27 -199 44 -41 c25 -23 84
-76 131 -118 56 -50 94 -94 109 -124 l22 -47 102 6 c185 12 403 65 535 132 61
31 152 100 166 126 20 38 4 72 -71 144 -174 170 -461 282 -887 349 -85 13 -87
13 -92 -8z"/>
<path d="M1000 717 c-50 -155 -104 -323 -121 -372 -16 -50 -29 -110 -29 -134
0 -134 163 -191 257 -89 22 23 227 639 221 663 -2 6 -56 57 -120 113 l-117
102 -91 -283z"/>
</g>
</svg>
